# Export of New Scene
# from Aaro4130 OBJ Exporter v2.0
mtllib Pie.mtl
g Cheese
v -2.746198 -0.2241678 0.5462552
v -2.799999 -0.2241678 2.13263E-06
v -5.900559E-08 -0.2241678 8.850838E-07
v -2.586861 -0.2241678 1.071516
v -2.328113 -0.2241678 1.555599
v -1.979897 -0.2241678 1.979901
v -2.8 -0.6960557 2.048337E-06
v -5.900559E-08 -0.6960559 8.850838E-07
v -5.900559E-08 -0.2241678 8.850838E-07
v -2.799999 -0.2241678 2.13263E-06
v -1.979897 -0.6960559 1.979901
v -1.979897 -0.2241678 1.979901
v -5.900559E-08 -0.2241678 8.850838E-07
v -5.900559E-08 -0.6960559 8.850838E-07
v -5.900559E-08 -0.6960559 8.850838E-07
v -2.8 -0.6960557 2.048337E-06
v -2.746198 -0.6960557 0.5462552
v -2.586861 -0.6960558 1.071516
v -2.328113 -0.6960558 1.555599
v -1.979897 -0.6960559 1.979901
v -2.8 -0.6960557 2.048337E-06
v -2.799999 -0.2241678 2.13263E-06
v -2.746198 -0.2241678 0.5462552
v -2.746198 -0.6960557 0.5462552
v -2.586861 -0.2241678 1.071516
v -2.586861 -0.6960558 1.071516
v -2.746198 -0.6960557 0.5462552
v -2.746198 -0.2241678 0.5462552
v -2.328113 -0.2241678 1.555599
v -2.328113 -0.6960558 1.555599
v -2.586861 -0.6960558 1.071516
v -2.586861 -0.2241678 1.071516
v -1.979897 -0.6960559 1.979901
v -2.328113 -0.6960558 1.555599
v -2.328113 -0.2241678 1.555599
v -1.979897 -0.2241678 1.979901
vn 0 0.3542429 0
vn 0 0.3542429 0
vn 0 0.3542429 0
vn 0 0.3542429 0
vn 0 0.3542429 0
vn 0 0.3542429 0
vn -3.653868E-07 0 -0.6612534
vn -3.653868E-07 0 -0.6612534
vn -3.653868E-07 0 -0.6612534
vn -3.653868E-07 0 -0.6612534
vn 0.4675772 0 0.4675763
vn 0.4675772 0 0.4675763
vn 0.4675772 0 0.4675763
vn 0.4675772 0 0.4675763
vn 0 -0.3542429 0
vn 0 -0.3542429 0
vn 0 -0.3542429 0
vn 0 -0.3542429 0
vn 0 -0.3542429 0
vn 0 -0.3542429 0
vn -0.6580692 0 0.06481455
vn -0.6580692 0 0.06481455
vn -0.6580692 0 0.06481455
vn -0.6580692 0 0.06481455
vn -0.6327799 0 0.1919522
vn -0.6327799 0 0.1919522
vn -0.6327799 0 0.1919522
vn -0.6327799 0 0.1919522
vn -0.5831732 0 0.3117133
vn -0.5831732 0 0.3117133
vn -0.5831732 0 0.3117133
vn -0.5831732 0 0.3117133
vn -0.5111552 0 0.4194954
vn -0.5111552 0 0.4194954
vn -0.5111552 0 0.4194954
vn -0.5111552 0 0.4194954
usemtl Cheese_Level_01
f 3/3/3 2/2/2 1/1/1
f 1/1/1 4/4/4 3/3/3
f 4/4/4 5/5/5 3/3/3
f 5/5/5 6/6/6 3/3/3
f 9/9/9 8/8/8 7/7/7
f 10/10/10 9/9/9 7/7/7
f 13/13/13 12/12/12 11/11/11
f 14/14/14 13/13/13 11/11/11
f 17/17/17 16/16/16 15/15/15
f 15/15/15 18/18/18 17/17/17
f 15/15/15 19/19/19 18/18/18
f 15/15/15 20/20/20 19/19/19
f 23/23/23 22/22/22 21/21/21
f 24/24/24 23/23/23 21/21/21
f 27/27/27 26/26/26 25/25/25
f 28/28/28 27/27/27 25/25/25
f 31/31/31 30/30/30 29/29/29
f 32/32/32 31/31/31 29/29/29
f 35/35/35 34/34/34 33/33/33
f 36/36/36 35/35/35 33/33/33
